<?xml version="1.0" encoding="UTF-8"?>
<svg width="255px" height="413px" viewBox="0 0 255 413" version="1.1" xmlns="http://www.w3.org/2000/svg" xmlns:xlink="http://www.w3.org/1999/xlink">
    <!-- Generator: Sketch 53 (72520) - https://sketchapp.com -->
    <title>Fill 1</title>
    <desc>Created with Sketch.</desc>
    <g id="Page-1" stroke="none" stroke-width="1" fill="none" fill-rule="evenodd">
        <g id="Homepage" transform="translate(0.000000, -1859.000000)" fill="#FDB515">
            <path d="M157.935759,1984.78166 C157.2842,1983.9761 156.3583,1983.41365 155.290466,1983.24396 L155.714361,1977.69756 L160.297185,1921.93992 C161.762241,1921.81313 163.005348,1920.95896 163.675959,1919.72918 L246.646895,1957.82851 C246.516393,1958.23749 246.426851,1958.66553 246.426851,1959.11835 C246.426851,1959.22512 246.450665,1959.32522 246.459238,1959.43009 L157.935759,1984.78166 Z M140.175052,1923.65494 C141.641061,1922.97237 142.662218,1921.49663 142.662218,1919.77399 C142.662218,1917.40404 140.742785,1915.48406 138.375643,1915.48406 C138.366118,1915.48406 138.356592,1915.48597 138.348019,1915.48597 L128.890883,1874.1873 L126.987644,1865.56836 L157.111784,1914.47736 C156.217319,1915.26384 155.641966,1916.40306 155.641966,1917.68718 C155.641966,1919.57474 156.866973,1921.1582 158.557789,1921.73305 L154.277882,1977.7252 L153.900664,1982.32687 L140.175052,1923.65494 Z M134.089069,1919.77399 C134.089069,1920.50232 134.288156,1921.17822 134.609173,1921.77977 L21.4531318,2036.01389 C20.7634695,2035.54009 19.9309215,2035.26077 19.0316934,2035.26077 C18.5573125,2035.26077 18.1086511,2035.3561 17.6828513,2035.4991 L-18.0690853,1970.57341 C-17.0765051,1969.78788 -16.426851,1968.58575 -16.426851,1967.22155 C-16.426851,1966.49226 -16.6259385,1965.81636 -16.9469553,1965.21482 L124.358545,1860.79796 L127.516321,1874.58674 L132.322048,1896.35288 L136.864864,1915.77196 C135.246444,1916.38494 134.089069,1917.93885 134.089069,1919.77399 L134.089069,1919.77399 Z M142.052572,2264.32293 C141.632487,2264.64802 141.275273,2265.0446 140.999027,2265.50219 L-14.5598096,2180.57304 C-14.445501,2180.18695 -14.3654849,2179.7856 -14.3654849,2179.36138 C-14.3654849,2177.47667 -15.5895401,2175.89321 -17.2784504,2175.3174 L-19.9456524,1971.43426 C-19.7570431,1971.39994 -19.577007,1971.34179 -19.3969708,1971.28364 L16.403547,2036.18454 C15.4004885,2036.97007 14.7451189,2038.17792 14.7451189,2039.5507 C14.7451189,2041.92065 16.6635992,2043.84063 19.0316934,2043.84063 C19.5479875,2043.84063 20.0347519,2043.73481 20.4938916,2043.56798 L142.052572,2264.32293 Z M250.713425,1954.82842 C249.312192,1954.82842 248.078611,1955.51195 247.296549,1956.55393 L164.146529,1918.37166 C164.182727,1918.14763 164.215115,1917.92169 164.215115,1917.68718 C164.215115,1915.31914 162.295682,1913.39725 159.92854,1913.39725 C159.358902,1913.39725 158.818794,1913.51355 158.320598,1913.71566 L125.98649,1861.21742 L125.925526,1861.24125 L125.508299,1859.41565 L124.387122,1859 L-17.8157011,1964.07846 C-18.5796639,1963.37301 -19.5922481,1962.93162 -20.7134255,1962.93162 C-23.0805672,1962.93162 -25,1964.85256 -25,1967.22155 C-25,1969.36365 -23.4263509,1971.12443 -21.3745105,1971.44475 L-18.7101663,2175.07812 C-21.0496834,2175.10958 -22.9386339,2177.0124 -22.9386339,2179.36138 C-22.9386339,2181.73132 -21.0192011,2183.65131 -18.6520594,2183.65131 C-17.2203435,2183.65131 -15.9610432,2182.94204 -15.1808866,2181.86193 L140.459871,2266.83588 C140.401764,2267.11806 140.370329,2267.41073 140.370329,2267.71007 C140.370329,2270.07907 142.28881,2272 144.656904,2272 C147.023093,2272 148.943478,2270.07907 148.943478,2267.71007 C148.943478,2265.34108 147.023093,2263.42014 144.656904,2263.42014 C144.186333,2263.42014 143.74053,2263.51547 143.316635,2263.65466 L21.733188,2042.85585 C22.6924281,2042.06936 23.318268,2040.88916 23.318268,2039.5507 C23.318268,2038.59833 22.9972511,2037.727 22.4723839,2037.01487 L135.486492,1922.92375 C136.249502,1923.62539 137.258276,1924.06392 138.375643,1924.06392 C138.518529,1924.06392 138.654747,1924.03532 138.794775,1924.02102 L152.736621,1983.62719 C151.316336,1984.32597 150.329471,1985.77501 150.329471,1987.46525 C150.329471,1989.83424 152.248904,1991.75518 154.616045,1991.75518 C156.98414,1991.75518 158.90262,1989.83424 158.90262,1987.46525 C158.90262,1986.97238 158.801647,1986.50621 158.649236,1986.06482 L246.784066,1960.82479 C247.444198,1962.34343 248.954025,1963.40828 250.713425,1963.40828 C253.080567,1963.40828 255,1961.48639 255,1959.11835 C255,1956.74936 253.080567,1954.82842 250.713425,1954.82842 L250.713425,1954.82842 Z" id="Fill-1"></path>
        </g>
    </g>
</svg>