<?xml version="1.0" encoding="UTF-8"?>
<svg width="265px" height="413px" viewBox="0 0 265 413" version="1.1" xmlns="http://www.w3.org/2000/svg" xmlns:xlink="http://www.w3.org/1999/xlink">
    <!-- Generator: Sketch 53 (72520) - https://sketchapp.com -->
    <title>Fill 1</title>
    <desc>Created with Sketch.</desc>
    <g id="Page-1" stroke="none" stroke-width="1" fill="none" fill-rule="evenodd">
        <g id="Homepage" transform="translate(0.000000, -2943.000000)" fill="#003262">
            <path d="M167.935759,3068.78166 C167.2842,3067.9761 166.3583,3067.41365 165.290466,3067.24396 L165.714361,3061.69756 L170.297185,3005.93992 C171.762241,3005.81313 173.005348,3004.95896 173.675959,3003.72918 L256.646895,3041.82851 C256.516393,3042.23749 256.426851,3042.66553 256.426851,3043.11835 C256.426851,3043.22512 256.450665,3043.32522 256.459238,3043.43009 L167.935759,3068.78166 Z M150.175052,3007.65494 C151.641061,3006.97237 152.662218,3005.49663 152.662218,3003.77399 C152.662218,3001.40404 150.742785,2999.48406 148.375643,2999.48406 C148.366118,2999.48406 148.356592,2999.48597 148.348019,2999.48597 L138.890883,2958.1873 L136.987644,2949.56836 L167.111784,2998.47736 C166.217319,2999.26384 165.641966,3000.40306 165.641966,3001.68718 C165.641966,3003.57474 166.866973,3005.1582 168.557789,3005.73305 L164.277882,3061.7252 L163.900664,3066.32687 L150.175052,3007.65494 Z M144.089069,3003.77399 C144.089069,3004.50232 144.288156,3005.17822 144.609173,3005.77977 L31.4531318,3120.01389 C30.7634695,3119.54009 29.9309215,3119.26077 29.0316934,3119.26077 C28.5573125,3119.26077 28.1086511,3119.3561 27.6828513,3119.4991 L-8.06908529,3054.57341 C-7.07650515,3053.78788 -6.42685097,3052.58575 -6.42685097,3051.22155 C-6.42685097,3050.49226 -6.62593854,3049.81636 -6.94695534,3049.21482 L134.358545,2944.79796 L137.516321,2958.58674 L142.322048,2980.35288 L146.864864,2999.77196 C145.246444,3000.38494 144.089069,3001.93885 144.089069,3003.77399 L144.089069,3003.77399 Z M152.052572,3348.32293 C151.632487,3348.64802 151.275273,3349.0446 150.999027,3349.50219 L-4.55980962,3264.57304 C-4.44550097,3264.18695 -4.36548491,3263.7856 -4.36548491,3263.36138 C-4.36548491,3261.47667 -5.58954008,3259.89321 -7.27845044,3259.3174 L-9.94565236,3055.43426 C-9.75704308,3055.39994 -9.57700695,3055.34179 -9.39697082,3055.28364 L26.403547,3120.18454 C25.4004885,3120.97007 24.7451189,3122.17792 24.7451189,3123.5507 C24.7451189,3125.92065 26.6635992,3127.84063 29.0316934,3127.84063 C29.5479875,3127.84063 30.0347519,3127.73481 30.4938916,3127.56798 L152.052572,3348.32293 Z M260.713425,3038.82842 C259.312192,3038.82842 258.078611,3039.51195 257.296549,3040.55393 L174.146529,3002.37166 C174.182727,3002.14763 174.215115,3001.92169 174.215115,3001.68718 C174.215115,2999.31914 172.295682,2997.39725 169.92854,2997.39725 C169.358902,2997.39725 168.818794,2997.51355 168.320598,2997.71566 L135.98649,2945.21742 L135.925526,2945.24125 L135.508299,2943.41565 L134.387122,2943 L-7.81570111,3048.07846 C-8.57966395,3047.37301 -9.5922481,3046.93162 -10.7134255,3046.93162 C-13.0805672,3046.93162 -15,3048.85256 -15,3051.22155 C-15,3053.36365 -13.4263509,3055.12443 -11.3745105,3055.44475 L-8.71016633,3259.07812 C-11.0496834,3259.10958 -12.9386339,3261.0124 -12.9386339,3263.36138 C-12.9386339,3265.73132 -11.0192011,3267.65131 -8.65205943,3267.65131 C-7.22034354,3267.65131 -5.9610432,3266.94204 -5.18088664,3265.86193 L150.459871,3350.83588 C150.401764,3351.11806 150.370329,3351.41073 150.370329,3351.71007 C150.370329,3354.07907 152.28881,3356 154.656904,3356 C157.023093,3356 158.943478,3354.07907 158.943478,3351.71007 C158.943478,3349.34108 157.023093,3347.42014 154.656904,3347.42014 C154.186333,3347.42014 153.74053,3347.51547 153.316635,3347.65466 L31.733188,3126.85585 C32.6924281,3126.06936 33.318268,3124.88916 33.318268,3123.5507 C33.318268,3122.59833 32.9972511,3121.727 32.4723839,3121.01487 L145.486492,3006.92375 C146.249502,3007.62539 147.258276,3008.06392 148.375643,3008.06392 C148.518529,3008.06392 148.654747,3008.03532 148.794775,3008.02102 L162.736621,3067.62719 C161.316336,3068.32597 160.329471,3069.77501 160.329471,3071.46525 C160.329471,3073.83424 162.248904,3075.75518 164.616045,3075.75518 C166.98414,3075.75518 168.90262,3073.83424 168.90262,3071.46525 C168.90262,3070.97238 168.801647,3070.50621 168.649236,3070.06482 L256.784066,3044.82479 C257.444198,3046.34343 258.954025,3047.40828 260.713425,3047.40828 C263.080567,3047.40828 265,3045.48639 265,3043.11835 C265,3040.74936 263.080567,3038.82842 260.713425,3038.82842 L260.713425,3038.82842 Z" id="Fill-1"></path>
        </g>
    </g>
</svg>