<?xml version="1.0" encoding="UTF-8"?>
<svg width="285px" height="329px" viewBox="0 0 285 329" version="1.1" xmlns="http://www.w3.org/2000/svg" xmlns:xlink="http://www.w3.org/1999/xlink">
    <!-- Generator: Sketch 53 (72520) - https://sketchapp.com -->
    <title>Fill 1</title>
    <desc>Created with Sketch.</desc>
    <g id="Page-1" stroke="none" stroke-width="1" fill="none" fill-rule="evenodd">
        <g id="Homepage" transform="translate(-1155.000000, -2949.000000)" fill="#FFFFFF">
            <path d="M1515.12844,3232.37116 L1345.65902,3275.56907 C1345.54772,3274.8547 1345.28303,3274.1531 1344.84237,3273.51919 C1343.6347,3271.78138 1341.50812,3271.06775 1339.57103,3271.56782 L1295.99939,3100.62828 C1296.1949,3100.52827 1296.38666,3100.41923 1296.57164,3100.29064 C1296.68143,3100.21394 1296.78445,3100.13123 1296.88597,3100.04776 L1356.31975,3134.89875 L1394.23354,3157.37827 C1393.58083,3158.88899 1393.69588,3160.68997 1394.70353,3162.14053 C1396.2541,3164.37314 1399.32215,3164.92509 1401.55477,3163.37452 C1401.97361,3163.0835 1402.33231,3162.7391 1402.63009,3162.35709 L1515.85184,3229.48884 C1515.31644,3230.35436 1515.06904,3231.36427 1515.12844,3232.37116 M1293.93672,3091.33463 L1297.1469,2993.24561 C1297.61087,2993.18169 1298.06957,2993.0516 1298.50948,2992.85157 L1395.97211,3155.26823 C1395.96083,3155.2765 1395.9488,3155.28252 1395.93677,3155.29079 C1395.65703,3155.4848 1395.40362,3155.70287 1395.17727,3155.9405 L1357.10482,3133.61589 L1298.07409,3098.61525 C1298.94337,3097.02933 1298.90727,3095.02457 1297.80638,3093.43941 C1296.88597,3092.11518 1295.4324,3091.38802 1293.93672,3091.33463 M1290.95515,3092.20692 C1290.81453,3092.30468 1290.68068,3092.4092 1290.55284,3092.51899 L1272.20918,3070.52074 C1273.46874,3068.86714 1273.5868,3066.52775 1272.33777,3064.72903 C1270.91578,3062.68441 1268.22447,3062.05501 1266.06781,3063.15515 L1204.05099,2988.78264 C1204.42472,2988.18407 1204.65783,2987.51556 1204.75032,2986.826 L1291.57552,2988.83453 C1291.65147,2989.65117 1291.93046,2990.46029 1292.43202,2991.18219 C1293.16369,2992.23495 1294.23451,2992.90872 1295.39405,2993.16966 L1292.40345,3091.52112 C1291.89963,3091.66625 1291.40934,3091.89109 1290.95515,3092.20692 M1263.54493,3068.81526 L1137.27492,3122.06255 C1137.16438,3121.83471 1137.04106,3121.61137 1136.89217,3121.39706 C1136.59063,3120.96242 1136.22893,3120.5932 1135.82888,3120.28865 L1198.94734,2991.00623 C1200.20389,2991.24761 1201.55218,2991.00472 1202.6854,2990.21666 C1202.73428,2990.18282 1202.77865,2990.14296 1202.82602,2990.10762 L1264.72252,3064.15227 C1263.53516,3065.40205 1263.10578,3067.17971 1263.54493,3068.81526 M1524.07919,3229.26851 C1522.52862,3227.03665 1519.46057,3226.48395 1517.22795,3228.03678 C1517.09485,3228.12927 1516.96852,3228.22778 1516.84746,3228.33005 L1403.35875,3161.04114 C1403.89716,3159.58306 1403.74226,3157.89563 1402.78875,3156.52253 C1401.54273,3154.72982 1399.3199,3154.02447 1397.33694,3154.61778 L1299.76753,2992.02515 C1301.58505,2990.39036 1301.94675,2987.6231 1300.51725,2985.56269 C1298.96518,2983.33158 1295.89712,2982.77963 1293.66601,2984.3317 C1292.60122,2985.07165 1291.92294,2986.1575 1291.66877,2987.33208 L1204.72024,2985.32055 C1204.60068,2984.63851 1204.3405,2983.97076 1203.91939,2983.36467 C1202.36807,2981.13356 1199.30001,2980.58161 1197.06891,2982.13368 C1194.83554,2983.68501 1194.28284,2986.75156 1195.83416,2988.98342 C1196.28685,2989.63538 1196.87114,2990.1392 1197.5231,2990.49338 L1134.5039,3119.57502 C1133.0586,3119.05992 1131.39674,3119.22235 1130.04168,3120.16532 C1127.80832,3121.71589 1127.25562,3124.78245 1128.80694,3127.01506 C1130.35826,3129.24767 1133.42632,3129.79962 1135.65818,3128.24905 C1137.23958,3127.14966 1137.972,3125.29153 1137.71859,3123.5071 L1264.15478,3070.19062 C1264.18787,3070.24251 1264.21645,3070.2959 1264.25254,3070.34778 C1265.80386,3072.57964 1268.87192,3073.13234 1271.10303,3071.58027 C1271.10979,3071.57576 1271.11581,3071.57049 1271.12258,3071.56598 L1289.5655,3093.68305 C1288.57966,3095.29678 1288.57214,3097.40532 1289.72116,3099.05741 C1290.84085,3100.66964 1292.75161,3101.39981 1294.56763,3101.10052 L1338.17386,3272.17316 C1338.11295,3272.21226 1338.05054,3272.2461 1337.99113,3272.28746 C1335.75852,3273.83953 1335.20657,3276.90608 1336.75714,3279.13869 C1338.30847,3281.3713 1341.37652,3281.92325 1343.60913,3280.37118 C1344.74838,3279.57935 1345.44771,3278.39123 1345.65526,3277.1219 L1515.44653,3233.84202 C1515.58489,3234.20372 1515.76386,3234.55489 1515.99396,3234.88651 C1517.54529,3237.11912 1520.61334,3237.67107 1522.84595,3236.1205 C1525.07857,3234.56768 1525.63051,3231.50113 1524.07919,3229.26851" id="Fill-1" transform="translate(1326.443211, 3131.252389) rotate(-248.000000) translate(-1326.443211, -3131.252389) "></path>
        </g>
    </g>
</svg>