<?xml version="1.0" encoding="UTF-8"?>
<svg width="302px" height="329px" viewBox="0 0 302 329" version="1.1" xmlns="http://www.w3.org/2000/svg" xmlns:xlink="http://www.w3.org/1999/xlink">
    <!-- Generator: Sketch 53 (72520) - https://sketchapp.com -->
    <title>Fill 1</title>
    <desc>Created with Sketch.</desc>
    <g id="Page-1" stroke="none" stroke-width="1" fill="none" fill-rule="evenodd">
        <g id="Homepage" transform="translate(-1138.000000, -1899.000000)" fill="#FDB515">
            <path d="M1498.12844,2182.37116 L1328.65902,2225.56907 C1328.54772,2224.8547 1328.28303,2224.1531 1327.84237,2223.51919 C1326.6347,2221.78138 1324.50812,2221.06775 1322.57103,2221.56782 L1278.99939,2050.62828 C1279.1949,2050.52827 1279.38666,2050.41923 1279.57164,2050.29064 C1279.68143,2050.21394 1279.78445,2050.13123 1279.88597,2050.04776 L1339.31975,2084.89875 L1377.23354,2107.37827 C1376.58083,2108.88899 1376.69588,2110.68997 1377.70353,2112.14053 C1379.2541,2114.37314 1382.32215,2114.92509 1384.55477,2113.37452 C1384.97361,2113.0835 1385.33231,2112.7391 1385.63009,2112.35709 L1498.85184,2179.48884 C1498.31644,2180.35436 1498.06904,2181.36427 1498.12844,2182.37116 M1276.93672,2041.33463 L1280.1469,1943.24561 C1280.61087,1943.18169 1281.06957,1943.0516 1281.50948,1942.85157 L1378.97211,2105.26823 C1378.96083,2105.2765 1378.9488,2105.28252 1378.93677,2105.29079 C1378.65703,2105.4848 1378.40362,2105.70287 1378.17727,2105.9405 L1340.10482,2083.61589 L1281.07409,2048.61525 C1281.94337,2047.02933 1281.90727,2045.02457 1280.80638,2043.43941 C1279.88597,2042.11518 1278.4324,2041.38802 1276.93672,2041.33463 M1273.95515,2042.20692 C1273.81453,2042.30468 1273.68068,2042.4092 1273.55284,2042.51899 L1255.20918,2020.52074 C1256.46874,2018.86714 1256.5868,2016.52775 1255.33777,2014.72903 C1253.91578,2012.68441 1251.22447,2012.05501 1249.06781,2013.15515 L1187.05099,1938.78264 C1187.42472,1938.18407 1187.65783,1937.51556 1187.75032,1936.826 L1274.57552,1938.83453 C1274.65147,1939.65117 1274.93046,1940.46029 1275.43202,1941.18219 C1276.16369,1942.23495 1277.23451,1942.90872 1278.39405,1943.16966 L1275.40345,2041.52112 C1274.89963,2041.66625 1274.40934,2041.89109 1273.95515,2042.20692 M1246.54493,2018.81526 L1120.27492,2072.06255 C1120.16438,2071.83471 1120.04106,2071.61137 1119.89217,2071.39706 C1119.59063,2070.96242 1119.22893,2070.5932 1118.82888,2070.28865 L1181.94734,1941.00623 C1183.20389,1941.24761 1184.55218,1941.00472 1185.6854,1940.21666 C1185.73428,1940.18282 1185.77865,1940.14296 1185.82602,1940.10762 L1247.72252,2014.15227 C1246.53516,2015.40205 1246.10578,2017.17971 1246.54493,2018.81526 M1507.07919,2179.26851 C1505.52862,2177.03665 1502.46057,2176.48395 1500.22795,2178.03678 C1500.09485,2178.12927 1499.96852,2178.22778 1499.84746,2178.33005 L1386.35875,2111.04114 C1386.89716,2109.58306 1386.74226,2107.89563 1385.78875,2106.52253 C1384.54273,2104.72982 1382.3199,2104.02447 1380.33694,2104.61778 L1282.76753,1942.02515 C1284.58505,1940.39036 1284.94675,1937.6231 1283.51725,1935.56269 C1281.96518,1933.33158 1278.89712,1932.77963 1276.66601,1934.3317 C1275.60122,1935.07165 1274.92294,1936.1575 1274.66877,1937.33208 L1187.72024,1935.32055 C1187.60068,1934.63851 1187.3405,1933.97076 1186.91939,1933.36467 C1185.36807,1931.13356 1182.30001,1930.58161 1180.06891,1932.13368 C1177.83554,1933.68501 1177.28284,1936.75156 1178.83416,1938.98342 C1179.28685,1939.63538 1179.87114,1940.1392 1180.5231,1940.49338 L1117.5039,2069.57502 C1116.0586,2069.05992 1114.39674,2069.22235 1113.04168,2070.16532 C1110.80832,2071.71589 1110.25562,2074.78245 1111.80694,2077.01506 C1113.35826,2079.24767 1116.42632,2079.79962 1118.65818,2078.24905 C1120.23958,2077.14966 1120.972,2075.29153 1120.71859,2073.5071 L1247.15478,2020.19062 C1247.18787,2020.24251 1247.21645,2020.2959 1247.25254,2020.34778 C1248.80386,2022.57964 1251.87192,2023.13234 1254.10303,2021.58027 C1254.10979,2021.57576 1254.11581,2021.57049 1254.12258,2021.56598 L1272.5655,2043.68305 C1271.57966,2045.29678 1271.57214,2047.40532 1272.72116,2049.05741 C1273.84085,2050.66964 1275.75161,2051.39981 1277.56763,2051.10052 L1321.17386,2222.17316 C1321.11295,2222.21226 1321.05054,2222.2461 1320.99113,2222.28746 C1318.75852,2223.83953 1318.20657,2226.90608 1319.75714,2229.13869 C1321.30847,2231.3713 1324.37652,2231.92325 1326.60913,2230.37118 C1327.74838,2229.57935 1328.44771,2228.39123 1328.65526,2227.1219 L1498.44653,2183.84202 C1498.58489,2184.20372 1498.76386,2184.55489 1498.99396,2184.88651 C1500.54529,2187.11912 1503.61334,2187.67107 1505.84595,2186.1205 C1508.07857,2184.56768 1508.63051,2181.50113 1507.07919,2179.26851" id="Fill-1" transform="translate(1309.443211, 2081.252389) rotate(-248.000000) translate(-1309.443211, -2081.252389) "></path>
        </g>
    </g>
</svg>