<?xml version="1.0" encoding="UTF-8"?>
<svg width="261px" height="56px" viewBox="0 0 261 56" version="1.1" xmlns="http://www.w3.org/2000/svg" xmlns:xlink="http://www.w3.org/1999/xlink">
    <!-- Generator: Sketch 53 (72520) - https://sketchapp.com -->
    <title>v </title>
    <desc>Created with Sketch.</desc>
    <defs>
        <polygon id="path-1" points="0 0.297141758 180.930286 0.297141758 180.930286 56 0 56"></polygon>
    </defs>
    <g id="Page-1" stroke="none" stroke-width="1" fill="none" fill-rule="evenodd">
        <g id="Homepage" transform="translate(-590.000000, -29.000000)">
            <g id="NavBar">
                <g id="v-" transform="translate(590.000000, 29.000000)">
                    <g id="Group-3">
                        <mask id="mask-2" fill="white">
                            <use xlink:href="#path-1"></use>
                        </mask>
                        <g id="Clip-2"></g>
                        <path d="M179.727238,17.207619 C178.924571,17.2072381 177.374095,17.4377143 176.511619,17.4377143 C174.96,17.4373333 173.926857,17.320381 172.380952,17.320381 C171.348571,17.320381 171.171429,17.320381 171.171429,18.0689524 C171.171429,18.640381 171.406095,18.640381 173.183619,18.640381 C175.135238,18.6407619 175.135238,18.9855238 175.134857,20.7070476 C175.134857,21.5112381 173.067048,27.4777143 171.690286,31.6106667 C170.767238,34.3085714 170.425524,35.1127619 170.026286,35.1127619 C169.79581,35.1127619 169.106286,34.1367619 168.644571,32.9295238 C165.205333,24.0914286 163.711619,22.0819048 163.712,20.4179048 C163.712,19.0979048 164.056762,18.7539048 165.437333,18.7539048 C166.638095,18.7539048 166.870095,18.695619 166.870476,18.1817143 C166.870476,17.552381 166.638476,17.319619 165.437333,17.319619 C163.596952,17.3192381 161.590476,17.4929524 159.982857,17.4929524 C158.605333,17.4925714 158.204952,17.3767619 156.599619,17.376381 C155.565714,17.376381 155.393143,17.6655238 155.393143,18.1805714 C155.393143,18.6940952 155.448,18.7527619 156.599238,18.7527619 C157.630857,18.7527619 158.033524,19.0415238 159.465524,22.4826667 C162.62019,29.9455238 167.214095,40.5626667 167.214095,41.1950476 C167.213714,42.9165714 162.276952,49.6853333 160.212571,52.2693333 C158.256,54.7398095 155.561143,55.0845714 155.561143,55.4262857 C155.560762,55.712381 156.133333,56 157.109714,56 C158.370286,56.000381 158.77181,55.5401905 160.493714,55.3100952 C161.757333,55.1394286 162.448,55.0853333 163.082286,53.816381 C164.913143,50.0342857 167.497143,45.3790476 171.115048,36.6007619 C175.648762,25.5878095 178.174476,18.6967619 179.44,18.6967619 C180.125333,18.6967619 180.930286,18.4118095 180.930286,17.8982857 C180.930286,17.2659048 180.641143,17.207619 179.727238,17.207619 L179.727238,17.207619 Z M25.399619,20.7497143 C24.0784762,20.0948571 22.8278095,19.7619048 22.8278095,19.6293333 C22.8278095,19.432381 24.2784762,18.7078095 25.5329524,17.8495238 C27.6430476,16.3954286 30.4838095,14.0891429 30.4845714,9.40190476 C30.4849524,4.72038095 26.7885714,0.297904762 18.208381,0.297142857 C12.2700952,0.296380952 9.10590476,0.691809524 7.72304762,0.691809524 C5.40914286,0.691428571 3.36342857,0.627047619 1.32152381,0.626666667 C0.19847619,0.626666667 0,0.690666667 0,1.15085714 C0,1.94361905 0.264761905,2.01333333 3.23428571,2.01371429 C5.0792381,2.01371429 6.13828571,2.60914286 6.13752381,7.81866667 L6.13409524,38.1714286 C6.13371429,39.1573333 5.99885714,39.288381 3.03238095,39.288 C1.58095238,39.288 1.184,39.4194286 1.184,40.08 C1.184,40.7413333 1.64609524,40.8064762 2.3047619,40.8064762 C4.41904762,40.8068571 5.86819048,40.5428571 8.63847619,40.5432381 C11.5413333,40.543619 14.3139048,41.2049524 17.0834286,41.2049524 C26.256381,41.2060952 32.3900952,37.7085714 32.3908571,30.319619 C32.391619,24.5786667 28.5013333,22.3386667 25.399619,20.7497143 L25.399619,20.7497143 Z M11.68,3.79314286 C11.68,2.47619048 11.8784762,1.88190476 16.2304762,1.88228571 C22.2358095,1.88304762 25.0068571,8.21409524 25.0064762,11.5135238 C25.0057143,16.7272381 22.8278095,17.9805714 20.9142857,19.432381 C20.9142857,19.432381 18.1417143,19.0373333 14.1211429,19.0369524 C12.5340952,19.0365714 11.6780952,19.1660952 11.6780952,18.1131429 L11.68,3.79314286 Z M17.4125714,40.0179048 C15.3028571,40.0175238 13.1893333,39.5542857 12.4628571,38.7626667 C11.8739048,38.1013333 11.6761905,34.4091429 11.6761905,33.8152381 L11.6777143,22.0030476 C11.6777143,20.552 12.2041905,20.2872381 14.0537143,20.2872381 C21.24,20.288381 26.1241905,24.9066667 26.1234286,30.847619 C26.1226667,36.5859048 22.4270476,40.0182857 17.4125714,40.0179048 L17.4125714,40.0179048 Z M46.1939048,41.5230476 C50.8438095,41.5234286 55.7230476,37.9074286 55.7230476,37.6205714 C55.7230476,37.5097143 55.5466667,37.1619048 55.2620952,37.1619048 C54.9165714,37.1619048 52.8506667,38.5401905 49.0632381,38.5398095 C44.7051429,38.5394286 38.5607619,36.4167619 38.5615238,28.4952381 C38.5619048,27.1767619 38.7325714,26.8853333 39.6529524,26.8312381 C46.1958095,26.4312381 51.9352381,25.167619 53.4278095,24.8217143 C54.9782857,24.4815238 55.7786667,24.2518095 55.7790476,24.0198095 C55.7790476,23.5619048 54.8624762,22.184 53.8860952,21.0377143 C51.8186667,18.6255238 48.1489524,16.7329524 45.1630476,16.7325714 C39.944,16.7318095 34.4887619,21.5504762 34.487619,29.6430476 C34.4864762,39.2247619 41.4868571,41.5222857 46.1939048,41.5230476 L46.1939048,41.5230476 Z M44.592381,17.9386667 C47.2312381,17.9390476 50.6148571,22.1832381 50.6148571,23.6171429 C50.6148571,23.9634286 50.5611429,24.0773333 49.9287619,24.191619 C45.624381,24.8807619 42.5219048,25.6259048 39.5371429,25.6255238 C38.8510476,25.625524 38.8510476,25.5710476 38.8510476,25.2830476 C38.8510476,24.4792381 40.231619,17.9382857 44.592381,17.9386667 L44.592381,17.9386667 Z M71.4438095,40.0342857 C71.4438095,39.5184762 71.3874286,39.3478095 69.8940952,39.3474286 C65.648,39.3470476 65.4784762,39.3470476 65.4788571,36.5337143 L65.480381,24.7108571 C65.4807619,22.3001905 66.7382857,20.9226667 70.072,20.9230476 C72.9394286,20.9234286 73.6285714,23.2788571 74.4312381,23.2788571 C74.776381,23.2788571 75.6937143,20.7512381 75.6937143,20.1798095 C75.6940952,18.688 73.0548571,17.4251429 72.0201905,17.4247619 C69.3245714,17.424381 66.6293333,20.4060952 65.7645714,20.4057143 C65.536,20.4057143 65.4811429,20.0038095 65.4811429,19.4887619 C65.4811429,19.3169524 65.5965714,18.0521905 65.5965714,17.7687619 C65.5965714,17.3074286 65.3630476,17.135619 65.1379048,17.135619 C64.216,17.1352381 63.1249524,17.423619 62.2087619,17.423619 C61.0586667,17.423619 59.9699048,17.3066667 58.0213333,17.3062857 C57.04,17.3062857 57.0986667,17.480381 57.0986667,18.168381 C57.0986667,18.7988571 57.0986667,18.7405714 58.1371429,18.7409524 C61.3455238,18.7413333 61.232,18.8594286 61.2312381,22.7607619 L61.2297143,38.4826667 C61.2293333,39.2853333 61.056381,39.3462857 58.7028571,39.3462857 C57.3272381,39.3459048 57.272381,39.4590476 57.272381,40.0327619 C57.272,40.6095238 57.3813333,40.6095238 58.7028571,40.6095238 C59.5085714,40.6099048 61.4590476,40.3207619 63.4091429,40.3211429 C65.2441905,40.3211429 69.0914286,40.6106667 69.8940952,40.6110476 C71.3874286,40.6110476 71.4438095,40.6659048 71.4438095,40.0342857 L71.4438095,40.0342857 Z M113.107048,41.5310476 C117.754667,41.5318095 122.638476,37.9158095 122.638476,37.6285714 C122.638476,37.5180952 122.465143,37.1702857 122.179048,37.1702857 C121.833524,37.1699048 119.764571,38.5485714 115.981714,38.5481905 C111.614095,38.5474286 105.479238,36.4247619 105.48,28.5032381 C105.480381,27.1847619 105.649905,26.8933333 106.570667,26.8392381 C113.108952,26.439619 118.851429,25.176 120.344,24.8297143 C121.890667,24.4895238 122.697905,24.2601905 122.698286,24.0281905 C122.698286,23.5702857 121.777524,22.192 120.802286,21.0460952 C118.734095,18.6339048 115.063619,16.7409524 112.077714,16.7405714 C106.856381,16.7401905 101.406476,21.5584762 101.405714,29.6510476 C101.40419,39.2331429 108.403048,41.5306667 113.107048,41.5310476 L113.107048,41.5310476 Z M111.504762,17.9470476 C114.144,17.9474286 117.532571,22.191619 117.532571,23.6251429 C117.532571,23.9718095 117.472,24.0853333 116.838857,24.199619 C112.537524,24.8887619 109.438095,25.6339048 106.454857,25.6335238 C105.763048,25.633524 105.763048,25.5794286 105.763048,25.2910476 C105.763048,24.487619 107.143238,17.9462857 111.504762,17.9470476 L111.504762,17.9470476 Z M146.208762,41.5352381 C150.858667,41.535619 155.735619,37.919619 155.735619,37.6327619 C155.735619,37.5222857 155.563429,37.1740952 155.274667,37.1740952 C154.93219,37.1740952 152.865143,38.5527619 149.079619,38.552381 C144.713905,38.551619 138.580952,36.4289524 138.581714,28.5074286 C138.582095,27.1889524 138.74819,26.8975238 139.66781,26.8434286 C146.210667,26.4434286 151.948571,25.1801905 153.441143,24.8335238 C154.993905,24.4937143 155.792,24.264 155.792381,24.032 C155.792381,23.5740952 154.875048,22.1961905 153.901714,21.0499048 C151.835048,18.6377143 148.165333,16.7451429 145.177143,16.7447619 C139.955048,16.744381 134.502095,21.5626667 134.500952,29.6552381 C134.50019,39.2373333 141.502476,41.5344762 146.208762,41.5352381 L146.208762,41.5352381 Z M144.60419,17.9508571 C147.243429,17.9512381 150.631238,22.1958095 150.631238,23.6293333 C150.631238,23.975619 150.572952,24.0895238 149.941333,24.2038095 C145.636952,24.8929524 142.54019,25.6380952 139.550476,25.6377143 C138.864762,25.6377144 138.864762,25.583619 138.864762,25.2952381 C138.864762,24.4914286 140.244952,17.9504762 144.60419,17.9508571 L144.60419,17.9508571 Z M124.024762,39.2952381 C122.644952,39.2952381 122.586286,39.6377143 122.586286,40.040381 C122.586286,40.5005714 122.700571,40.6175238 124.024381,40.6175238 C124.824762,40.6179048 127.871619,40.5013333 129.817905,40.5017143 C130.85181,40.5017143 132.118476,40.6186667 132.976762,40.6186667 C135.041524,40.6190476 135.444571,40.6190476 135.444571,40.0422857 C135.444571,39.5851429 135.557333,39.2373333 132.688762,39.2369524 C131.655619,39.2369524 131.255619,38.6057143 131.256381,33.8438095 C131.256381,32.1798095 131.540952,27.648 131.543619,5.78247619 C131.543619,4.06019048 131.833905,1.99314286 131.834286,1.30819048 C131.834286,0.673904762 131.544381,0.387428571 131.260571,0.387047619 C130.91619,0.387047619 128.734857,1.36190476 124.25981,1.64914286 C123.28381,1.704 122.822095,1.64914286 122.822095,2.33714286 C122.822095,2.97028571 123.395048,3.08419048 124.429714,3.08419048 C127.011429,3.08457143 127.355048,3.08457143 127.354667,6.69980952 L127.350476,38.32 C127.350476,39.3546667 126.374476,39.295619 124.024762,39.2952381 L124.024762,39.2952381 Z M101.40419,39.5809524 C99.4502857,39.5805714 97.6148571,36.7672381 95.6624762,34.4144762 C91.6434286,29.592 90.6182857,28.5013333 90.6182857,27.984 C90.6182857,27.584381 94.1718095,25.0575238 97.0411429,22.2453333 C98.8213333,20.5260952 100.77219,18.056381 100.77219,17.544381 C100.77219,17.3695238 100.544,17.311619 100.084571,17.311619 C99.3950476,17.3112381 96.0651429,17.4849524 95.320381,17.4849524 C94.6312381,17.4849524 93.5409524,17.3108571 92.9664762,17.3104762 C92.2209524,17.3104762 91.9333333,17.4270476 91.9333333,17.8849524 C91.9333333,18.4007619 92.2209524,18.5184762 93.0822857,18.5184762 C95.6064762,18.5188571 95.7790476,18.6312381 95.7786667,19.5512381 C95.7786667,20.7535238 95.2628571,21.7302857 93.0274286,23.8537143 C91.1870476,25.5775238 85.2171429,30.8548571 83.7874286,30.8544762 C83.6110476,30.8544762 83.5539048,30.6819048 83.5539048,30.4506667 C83.5550476,21.0979048 83.8979048,14.672 83.8986667,5.94742857 C83.8990476,4.11238095 84.0167619,1.69904762 84.0171429,0.954285714 C84.0171429,0.60952381 83.8994286,0.436952381 83.6148571,0.436952381 C83.1013333,0.436952381 79.7097143,1.69866667 75.5855238,1.69790476 C74.9489524,1.69790476 74.8377143,1.92914286 74.8377143,2.50133333 C74.8377143,2.90438095 75.0628571,3.07847619 77.4205714,3.07847619 C78.9660952,3.07885714 79.4247619,3.59619048 79.424381,7.66514286 C79.4228571,19.7794286 79.2506667,36.7649524 79.2502857,38.4278095 C79.2502857,39.2899048 78.7329524,39.2899048 76.7832381,39.2895238 C75.4030476,39.2895238 75.1161905,39.5779048 75.1161905,40.0346667 C75.1161905,40.5512381 75.4617143,40.6118095 76.7832381,40.6118095 C77.5813333,40.6118095 79.7047619,40.495619 81.656,40.495619 C83.4971429,40.496 86.1348571,40.6129524 86.9939048,40.6129524 C88.2582857,40.6133333 88.543619,40.6133333 88.543619,40.0365714 C88.543619,39.5794286 88.3154286,39.2910476 86.9939048,39.2906667 C83.4377143,39.2902857 83.5527619,39.2902857 83.5531429,36.5931429 L83.5535238,32.9786667 C83.5535238,32.4613333 84.3580952,32.0594286 85.2750476,31.4834286 C86.2502857,30.8548571 87.0540952,30.2811429 87.2834286,30.2811429 C87.6262857,30.2811429 90.0392381,33.8990476 92.447619,36.6499048 C94.8598095,39.4045714 95.3725714,40.8422857 96.4095238,40.8422857 C97.2114286,40.8422857 98.9333333,40.7847619 99.6194286,40.7847619 C100.139048,40.7847619 100.887619,40.8430476 101.569524,40.8430476 C102.834667,40.8430476 103.23619,40.7264762 103.23619,40.3257143 C103.23619,39.8674286 102.777905,39.5809524 101.40419,39.5809524 L101.40419,39.5809524 Z" id="Fill-1" fill="#092A4D" mask="url(#mask-2)"></path>
                    </g>
                    <path d="M203.036571,3.17219048 C202.835048,3.17219048 200.745524,3.17219048 200.745524,3.17219048 L200.745524,10.3977143 L202.985905,10.3474286 C205.956952,10.2971429 207.568,9.11390476 207.568,6.67161905 C207.568,4.4312381 205.982095,3.17219048 203.036571,3.17219048 Z M202.885333,11.8579048 L200.745524,11.8830476 L200.745524,17.4217143 L199.134095,17.4217143 L199.134095,1.68685714 C199.134095,1.68685714 202.885333,1.68685714 203.086857,1.68685714 C207.240762,1.68685714 209.229714,3.70095238 209.229714,6.59619048 C209.229714,10.0453333 206.787429,11.807619 202.885333,11.8579048 L202.885333,11.8579048 Z" id="Fill-4" fill="#D5992C"></path>
                    <path d="M213.458667,5.89142857 L213.458667,13.3432381 C213.458667,15.3573333 214.264,16.263619 215.950857,16.263619 C217.285333,16.263619 218.569143,15.584 219.500571,14.6270476 L219.500571,5.89142857 L221.061714,5.89142857 L221.061714,17.4217143 L219.500571,17.7489524 C219.500571,17.7489524 219.500571,15.936381 219.500571,15.8860952 C218.317333,17.0944762 216.806857,17.7489524 215.523048,17.7489524 C213.282286,17.7489524 211.897524,16.3139048 211.897524,13.7961905 L211.897524,5.89142857 L213.458667,5.89142857" id="Fill-5" fill="#D5992C"></path>
                    <path d="M229.419048,7.07466667 C228.160381,7.07466667 227.078095,7.60304762 226.247238,8.35847619 C226.247238,8.28304762 226.247238,15.4327619 226.247238,15.4327619 C226.952,15.9866667 228.034286,16.3390476 229.142476,16.3390476 C231.609524,16.3390476 233.145143,14.3500952 233.145143,11.5809524 C233.145143,8.96266667 231.710095,7.07466667 229.419048,7.07466667 Z M229.066667,17.7489524 C228.135238,17.7489524 227.002286,17.472 226.247238,17.119619 L224.686095,17.7992381 L224.686095,0.453333333 L226.247238,0.126095238 C226.247238,0.126095238 226.247238,7.024 226.247238,7.09980952 C227.027429,6.36952381 228.23619,5.63961905 229.721143,5.63961905 C232.767619,5.63961905 234.756571,8.05638095 234.756571,11.5055238 C234.756571,15.1306667 232.389714,17.7489524 229.066667,17.7489524 L229.066667,17.7489524 Z" id="Fill-6" fill="#D5992C"></path>
                    <polyline id="Fill-7" fill="#D5992C" points="237.549714 17.4217143 237.549714 0.453333333 239.110857 0.126095238 239.110857 17.4217143 237.549714 17.4217143"></polyline>
                    <path d="M242.761143,17.4217143 L242.761143,5.89142857 L244.321905,5.56380952 L244.321905,17.4217143 L242.761143,17.4217143 Z M243.541333,3.24761905 C242.836571,3.24761905 242.48419,2.69409524 242.48419,2.08990476 C242.48419,1.51085714 242.836571,0.982095238 243.541333,0.982095238 C244.246476,0.982095238 244.598857,1.51085714 244.598857,2.08990476 C244.598857,2.69409524 244.246476,3.24761905 243.541333,3.24761905 L243.541333,3.24761905 Z" id="Fill-8" fill="#D5992C"></path>
                    <path d="M252.881143,17.7489524 C249.406857,17.7489524 247.241524,15.256381 247.241524,11.6815238 C247.241524,8.08152381 249.633524,5.56380952 252.905905,5.56380952 C254.31619,5.56380952 255.524571,5.91657143 256.506286,6.54590476 L256.103619,7.95580952 C255.222476,7.3767619 254.114667,7.024 252.905905,7.024 C250.413714,7.024 248.852952,8.8872381 248.852952,11.6312381 C248.852952,14.4506667 250.489524,16.2887619 252.931429,16.2887619 C254.089524,16.2887619 255.247619,15.9108571 256.128381,15.3318095 L256.456,16.7672381 C255.474286,17.3714286 254.215238,17.7489524 252.881143,17.7489524" id="Fill-9" fill="#D5992C"></path>
                    <polyline id="Fill-10" fill="#D5992C" points="209.959619 40.7314286 209.959619 33.5561905 200.745524 33.5561905 200.745524 40.7314286 199.134095 40.7314286 199.134095 24.9965714 200.745524 24.9965714 200.745524 32.096 209.959619 32.096 209.959619 24.9965714 211.571048 24.9965714 211.571048 40.7314286 209.959619 40.7314286"></polyline>
                    <path d="M222.723048,33.7577143 C222.74781,33.632 222.74781,33.3801905 222.74781,33.2540952 C222.74781,31.4918095 221.791238,30.2834286 219.978667,30.2834286 C217.914286,30.2834286 216.58019,31.8697143 216.328,33.7828571 L222.723048,33.7577143 Z M216.227429,35.1424762 C216.278095,37.735619 217.838857,39.5984762 220.255619,39.5984762 C221.514286,39.5984762 222.723048,39.2209524 223.60419,38.6419048 L223.905905,40.0769524 C222.92419,40.6811429 221.640381,41.0586667 220.205333,41.0586667 C216.881905,41.0586667 214.641524,38.5660952 214.641524,35.0670476 C214.641524,31.4415238 216.957714,28.8735238 220.079619,28.8735238 C222.622095,28.8735238 224.28381,30.5352381 224.28381,33.128381 C224.28381,33.7325714 224.183238,34.4624762 224.032,34.9660952 L216.227429,35.016381 L216.227429,35.1424762 L216.227429,35.1424762 Z" id="Fill-11" fill="#D5992C"></path>
                    <path d="M233.245333,34.8152381 C229.292571,35.2681905 227.883048,36.1493333 227.883048,37.6849524 C227.883048,38.9188571 228.889905,39.6990476 230.249524,39.6990476 C231.483048,39.6990476 232.540571,38.9942857 233.245333,38.1885714 L233.245333,34.8152381 Z M233.270857,39.3466667 C232.490286,40.3032381 231.256381,41.0586667 229.897143,41.0586667 C227.782095,41.0586667 226.246476,39.6990476 226.246476,37.8613333 C226.246476,35.7718095 227.883048,34.0598095 233.245333,33.7577143 C233.245333,33.7577143 233.245333,33.1535238 233.245333,33.0777143 C233.245333,31.2655238 232.439619,30.3337143 230.526095,30.3337143 C229.26781,30.3337143 227.73181,30.9885714 226.750095,31.7184762 L226.397714,30.2582857 C227.429714,29.528381 229.166857,28.8735238 230.677333,28.8735238 C233.346286,28.8735238 234.831238,30.0822857 234.806476,33.0022857 C234.806476,33.0777143 234.806476,38.5409524 234.806476,38.5409524 C234.806476,39.3718095 234.957333,39.7241905 235.964571,39.6990476 L235.863619,40.9832381 C234.353143,41.0838095 233.522286,40.479619 233.346286,39.3466667 L233.270857,39.3466667 L233.270857,39.3466667 Z" id="Fill-12" fill="#D5992C"></path>
                    <polyline id="Fill-13" fill="#D5992C" points="238.279619 40.7314286 238.279619 23.7630476 239.840762 23.4358095 239.840762 40.7314286 238.279619 40.7314286"></polyline>
                    <path d="M246.637333,41.1089524 C244.447238,41.1089524 243.465143,39.9005714 243.540571,37.4838095 L243.716952,30.6613333 L241.954667,30.560381 L242.030476,29.5786667 L243.767238,29.175619 L243.842667,26.5573333 L245.328381,26.5573333 L245.252952,29.2514286 L249.104762,29.2514286 L249.029333,30.6358095 L245.202667,30.6358095 L245.026286,37.5340952 C244.976,38.9942857 245.504762,39.6990476 246.713143,39.6990476 C247.46819,39.6990476 248.223238,39.4472381 248.928381,39.1451429 L249.205714,40.5047619 C248.399619,40.8822857 247.46819,41.1089524 246.637333,41.1089524" id="Fill-14" fill="#D5992C"></path>
                    <path d="M259.350476,40.7314286 L259.350476,33.2792381 C259.350476,31.2655238 258.545143,30.3588571 256.883429,30.3588571 C255.549333,30.3588571 254.265524,31.0388571 253.308571,31.9954286 L253.308571,40.7314286 L251.747429,40.7314286 L251.747429,23.7630476 L253.308571,23.4358095 C253.308571,23.4358095 253.308571,30.6613333 253.308571,30.711619 C254.516952,29.5032381 256.02781,28.8735238 257.311619,28.8735238 C259.552381,28.8735238 260.911619,30.3085714 260.911619,32.8262857 L260.911619,40.7314286 L259.350476,40.7314286" id="Fill-15" fill="#D5992C"></path>
                </g>
            </g>
        </g>
    </g>
</svg>